<svg xmlns="http://www.w3.org/2000/svg" width="200" height="200" fill="none"><g clip-path="url(#r)"><path fill-rule="evenodd" clip-rule="evenodd" d="M100 184c7 8 14 16 27 16 31 0 40-42 40-73 0-13 9-20 17-27s16-14 16-27c0-31-42-40-73-40-13 0-20-9-27-17S86 0 73 0C42 0 33 42 33 73c0 13-9 20-17 27S0 114 0 127c0 31 42 40 73 40 13 0 20 9 27 17zm0-47a37 37 0 100-74 37 37 0 000 74z" fill="url(#g)"/></g><defs><linearGradient id="g" x1="100" x2="100" y1="0" y2="200" gradientUnits="userSpaceOnUse"><stop stop-color="#93c5fd"/><stop offset="1" stop-color="#c4b5fd"/></linearGradient><clipPath id="r"><path fill="#fff" d="M0 0h200v200H0z"/></clipPath></defs></svg>